HIERARCHY
ROOT Hips
{
 OFFSET 0.000000 0.000000 0.000000
 CHANNELS 6 Xposition Yposition Zposition Yrotation Xrotation Zrotation
 JOINT Chest
 {
  OFFSET 0.000000 10.354800 0.006500
  CHANNELS 3 Yrotation Xrotation Zrotation
  JOINT Chest2
  {
   OFFSET 0.000000 10.435800 -0.013200
   CHANNELS 3 Yrotation Xrotation Zrotation
   JOINT Chest3
   {
    OFFSET 0.000000 10.393700 0.000000
    CHANNELS 3 Yrotation Xrotation Zrotation
    JOINT Chest4
    {
     OFFSET 0.000000 10.383100 0.000000
     CHANNELS 3 Yrotation Xrotation Zrotation
     JOINT Neck
     {
      OFFSET 0.000000 15.694000 0.000000
      CHANNELS 3 Yrotation Xrotation Zrotation
      JOINT Head
      {
       OFFSET 0.000000 9.711000 -0.028000
       CHANNELS 3 Yrotation Xrotation Zrotation
       End Site
       {
        OFFSET 0.000000 18.578700 -0.014800
       }
      }
     }
     JOINT RightCollar
     {
      OFFSET -3.157200 10.367500 0.000000
      CHANNELS 3 Yrotation Xrotation Zrotation
      JOINT RightShoulder
      {
       OFFSET -14.482500 0.000000 0.000000
       CHANNELS 3 Yrotation Xrotation Zrotation
       JOINT RightElbow
       {
        OFFSET 0.000000 -31.707800 0.000000
        CHANNELS 3 Yrotation Xrotation Zrotation
        JOINT RightWrist
        {
         OFFSET 0.000000 -25.659300 0.000000
         CHANNELS 3 Yrotation Xrotation Zrotation
         End Site
         {
          OFFSET 0.000000 -18.994300 0.000000
         }
        }
       }
      }
     }
     JOINT LeftCollar
     {
      OFFSET 3.157200 10.367500 0.000000
      CHANNELS 3 Yrotation Xrotation Zrotation
      JOINT LeftShoulder
      {
       OFFSET 14.482500 0.000000 0.000000
       CHANNELS 3 Yrotation Xrotation Zrotation
       JOINT LeftElbow
       {
        OFFSET 0.000000 -31.707800 0.000000
        CHANNELS 3 Yrotation Xrotation Zrotation
        JOINT LeftWrist
        {
         OFFSET 0.000000 -25.659300 0.000000
         CHANNELS 3 Yrotation Xrotation Zrotation
         End Site
         {
          OFFSET 0.000000 -18.994300 0.000000
         }
        }
       }
      }
     }
    }
   }
  }
 }
 JOINT RightHip
 {
  OFFSET -8.365600 -0.032100 -0.003200
  CHANNELS 3 Yrotation Xrotation Zrotation
  JOINT RightKnee
  {
   OFFSET 0.000000 -43.980000 0.003100
   CHANNELS 3 Yrotation Xrotation Zrotation
   JOINT RightAnkle
   {
    OFFSET 0.000000 -42.882800 0.005200
    CHANNELS 3 Yrotation Xrotation Zrotation
    JOINT RightToe
    {
     OFFSET 0.000000 -4.915500 10.826300
     CHANNELS 3 Yrotation Xrotation Zrotation
     End Site
     {
      OFFSET 0.000000 -1.517500 6.175900
     }
    }
   }
  }
 }
 JOINT LeftHip
 {
  OFFSET 8.365600 -0.032100 -0.003200
  CHANNELS 3 Yrotation Xrotation Zrotation
  JOINT LeftKnee
  {
   OFFSET 0.000000 -43.980000 0.003100
   CHANNELS 3 Yrotation Xrotation Zrotation
   JOINT LeftAnkle
   {
    OFFSET 0.000000 -42.882800 0.005200
    CHANNELS 3 Yrotation Xrotation Zrotation
    JOINT LeftToe
    {
     OFFSET 0.000000 -4.915500 10.826300
     CHANNELS 3 Yrotation Xrotation Zrotation
     End Site
     {
      OFFSET 0.000000 -1.517500 6.175900
     }
    }
   }
  }
 }
}
MOTION
Frames: 8
Frame Time: 0.008333
-11.057670 126.766024 20.672607 176.844490 -24.745667 -4.172137 -2.347257 14.655005 3.007449 -0.248275 1.352085 0.301768 -0.423511 2.302975 0.489621 -2.116111 13.067366 2.710746 -2.549193 23.127752 -0.947719 -2.526422 -0.869724 -0.432003 1.623157 7.084460 -5.693579 -6.093210 -4.460163 0.831899 -120.349822 -59.564793 144.841039 -18.931623 -22.709065 -41.628474 -0.282630 9.032746 0.593236 12.819042 -3.364369 -6.753375 104.556746 -54.678872 -141.280734 25.197939 -0.301536 38.123487 9.217628 -57.997780 3.182656 -113.735179 81.128282 -107.557095 3.064869 -13.934210 -13.578492 -0.000633 -0.004520 -0.000288 -18.905960 -56.604758 11.529822 86.033038 81.464152 81.085383 -9.947597 -8.572497 -0.033277 0.002733 -0.001473 0.001241
-11.056446 126.763540 20.668425 176.821389 -24.701386 -4.180537 -2.345232 14.674938 2.994678 -0.235185 1.319375 0.315530 -0.421778 2.297955 0.488844 -2.109237 13.058873 2.709718 -2.548967 23.124252 -0.949304 -2.515248 -0.879066 -0.422289 1.623180 7.088655 -5.696391 -6.096009 -4.470392 0.813843 -120.336382 -59.534378 144.825392 -18.916713 -22.701857 -41.627502 -0.275843 9.025084 0.602378 12.856262 -3.361342 -6.723180 104.532331 -54.661774 -141.284181 25.203741 -0.281936 38.100422 9.219973 -58.046483 3.196101 -113.666962 81.117818 -107.485701 3.088656 -13.924443 -13.573957 -0.001049 -0.004514 -0.000476 -18.938049 -56.643250 11.586808 86.035204 81.456998 81.094580 -9.947631 -8.571915 -0.040563 0.006689 -0.000683 0.003037
-11.054739 126.758715 20.669388 176.789223 -24.625714 -4.190185 -2.319903 14.614262 3.013319 -0.250340 1.361710 0.292387 -0.408839 2.265984 0.502421 -2.106183 13.053930 2.703102 -2.540709 23.114220 -0.939927 -2.517037 -0.880566 -0.426208 1.633251 7.088928 -5.690502 -6.095513 -4.487655 0.825385 -120.374869 -59.557382 144.845587 -18.931041 -22.699210 -41.615678 -0.265624 9.012646 0.617928 12.898242 -3.342182 -6.674890 104.472553 -54.646379 -141.264043 25.209862 -0.305742 38.069239 9.226692 -58.129321 3.215879 -113.627564 81.121334 -107.443613 3.091358 -13.913087 -13.575438 0.000804 -0.001691 0.000365 -18.985206 -56.712741 11.668915 86.072589 81.455348 81.135306 -9.948851 -8.578155 -0.038408 0.004633 0.003159 0.002104
-11.054003 126.756120 20.665032 176.773406 -24.579802 -4.200459 -2.309410 14.584514 3.023702 -0.253177 1.375403 0.281940 -0.407279 2.262597 0.501440 -2.099576 13.045588 2.700675 -2.528739 23.101317 -0.921380 -2.528492 -0.876289 -0.439320 1.641003 7.082696 -5.677930 -6.092869 -4.494347 0.814695 -120.435523 -59.594580 144.873764 -18.947799 -22.654666 -41.587732 -0.263627 9.009738 0.624012 12.922094 -3.342014 -6.648922 104.452665 -54.633440 -141.267577 25.212639 -0.284314 38.050394 9.221921 -58.179979 3.233867 -113.582788 81.127586 -107.395074 3.088262 -13.895154 -13.579352 0.002957 -0.002179 0.001343 -19.012068 -56.764089 11.709275 86.137424 81.450810 81.212485 -9.945341 -8.574407 -0.039398 0.002330 -0.000760 0.001058
-11.053281 126.753733 20.660065 176.756988 -24.536539 -4.211084 -2.307425 14.605920 3.003148 -0.243137 1.341610 0.299265 -0.404140 2.252425 0.505189 -2.091529 13.035098 2.705458 -2.538360 23.105804 -0.931923 -2.528932 -0.880832 -0.438388 1.641226 7.085310 -5.675353 -6.094489 -4.500358 0.801726 -120.436047 -59.597117 144.868068 -18.959382 -22.647474 -41.576316 -0.279179 9.035093 0.606941 12.951319 -3.366114 -6.623217 104.399127 -54.628955 -141.243912 25.218694 -0.283465 38.040881 9.214664 -58.228500 3.254537 -113.564358 81.130023 -107.375991 3.088264 -13.881907 -13.580575 0.003156 -0.002202 0.001433 -19.044676 -56.805341 11.759408 86.162240 81.450408 81.242620 -9.939193 -8.574715 -0.040706 0.004452 -0.000623 0.002021
-11.053310 126.751346 20.654782 176.738980 -24.493692 -4.217548 -2.297502 14.596276 2.998909 -0.237879 1.323601 0.308147 -0.401955 2.243944 0.509425 -2.088828 13.037218 2.698863 -2.562030 23.124566 -0.962992 -2.534512 -0.890140 -0.433134 1.635495 7.098058 -5.681104 -6.102416 -4.517281 0.801043 -120.415575 -59.599278 144.855695 -18.973484 -22.656214 -41.568439 -0.286971 9.042726 0.601778 12.961335 -3.361759 -6.603922 104.363814 -54.618832 -141.231519 25.217893 -0.283158 38.034938 9.216791 -58.277321 3.265033 -113.558646 81.135637 -107.369033 3.089066 -13.869984 -13.581231 0.003585 -0.003390 0.001627 -19.069415 -56.847133 11.805240 86.201542 81.458245 81.282455 -9.960268 -8.580596 -0.029584 0.000198 -0.000745 0.000090
-11.053012 126.748721 20.649975 176.720117 -24.446833 -4.226170 -2.286185 14.583976 2.998761 -0.231385 1.304296 0.316772 -0.403518 2.255882 0.500167 -2.081980 13.029579 2.699712 -2.565307 23.121650 -0.963026 -2.535484 -0.896659 -0.431974 1.632858 7.098762 -5.678588 -6.102655 -4.531180 0.794488 -120.397019 -59.591175 144.839819 -18.984899 -22.652511 -41.554941 -0.286912 9.032313 0.611158 12.956582 -3.339642 -6.592182 104.359186 -54.604961 -141.236803 25.226288 -0.278822 38.042040 9.221235 -58.327571 3.272672 -113.467075 81.128206 -107.275883 3.108752 -13.855496 -13.579882 0.002312 -0.003391 0.001050 -19.090203 -56.893650 11.849118 86.246301 81.457756 81.332337 -9.959902 -8.584634 -0.024165 -0.000632 -0.000398 -0.000287
-11.053580 126.746329 20.644306 176.708787 -24.402778 -4.233165 -2.280109 14.566264 2.999702 -0.240512 1.345518 0.294144 -0.396755 2.219705 0.514957 -2.075694 13.038249 2.685937 -2.547524 23.092416 -0.935437 -2.542104 -0.895607 -0.438033 1.633426 7.082072 -5.661381 -6.104516 -4.538283 0.771651 -120.371699 -59.565945 144.825340 -19.006181 -22.656989 -41.538825 -0.288318 9.016293 0.622567 12.956548 -3.338488 -6.580386 104.353829 -54.598678 -141.228708 25.250130 -0.262185 38.071046 9.228396 -58.372109 3.271289 -113.422879 81.121844 -107.232265 3.122464 -13.852374 -13.574955 0.000091 -0.001874 0.000041 -19.112252 -56.936192 11.890727 86.276276 81.464438 81.369145 -9.992926 -8.591278 -0.014283 -0.000348 0.000606 -0.000158
